<?xml version="1.0" encoding="UTF-8" standalone="no"?>
<!-- Generator: Adobe Illustrator 15.0.0, SVG Export Plug-In . SVG Version: 6.00 Build 0)  -->

<svg
   xmlns:dc="http://purl.org/dc/elements/1.1/"
   xmlns:cc="http://creativecommons.org/ns#"
   xmlns:rdf="http://www.w3.org/1999/02/22-rdf-syntax-ns#"
   xmlns:svg="http://www.w3.org/2000/svg"
   xmlns="http://www.w3.org/2000/svg"
   xmlns:sodipodi="http://sodipodi.sourceforge.net/DTD/sodipodi-0.dtd"
   xmlns:inkscape="http://www.inkscape.org/namespaces/inkscape"
   version="1.1"
   id="Layer_1"
   x="0px"
   y="0px"
   width="664"
   height="664"
   viewBox="0 0 664 664"
   enable-background="new 0 0 800 800"
   xml:space="preserve"
   inkscape:version="0.48.1 "
   sodipodi:docname="AJAX.svg"><metadata
   id="metadata39"><rdf:RDF><cc:Work
       rdf:about=""><dc:format>image/svg+xml</dc:format><dc:type
         rdf:resource="http://purl.org/dc/dcmitype/StillImage" /></cc:Work></rdf:RDF></metadata><defs
   id="defs37" /><sodipodi:namedview
   pagecolor="#ffffff"
   bordercolor="#666666"
   borderopacity="1"
   objecttolerance="10"
   gridtolerance="10"
   guidetolerance="10"
   inkscape:pageopacity="0"
   inkscape:pageshadow="2"
   inkscape:window-width="640"
   inkscape:window-height="480"
   id="namedview35"
   showgrid="false"
   fit-margin-top="0"
   fit-margin-left="0"
   fit-margin-right="0"
   fit-margin-bottom="0"
   inkscape:zoom="0.32625"
   inkscape:cx="332"
   inkscape:cy="332"
   inkscape:window-x="0"
   inkscape:window-y="0"
   inkscape:window-maximized="0"
   inkscape:current-layer="Layer_1" />
<circle
   stroke-miterlimit="10"
   cx="400"
   cy="400"
   r="320"
   id="circle3"
   sodipodi:cx="400"
   sodipodi:cy="400"
   sodipodi:rx="320"
   sodipodi:ry="320"
   style="fill:none;stroke:#000000;stroke-width:24;stroke-miterlimit:10"
   transform="translate(-68,-68)" />
<line
   stroke-miterlimit="10"
   x1="331"
   y1="257"
   x2="331"
   y2="69"
   id="line5"
   style="fill:none;stroke:#000000;stroke-width:28;stroke-linecap:round;stroke-linejoin:round;stroke-miterlimit:10" />
<circle
   stroke-miterlimit="10"
   cx="399"
   cy="325"
   r="36"
   id="circle7"
   sodipodi:cx="399"
   sodipodi:cy="325"
   sodipodi:rx="36"
   sodipodi:ry="36"
   style="stroke:#000000;stroke-width:4;stroke-linecap:round;stroke-linejoin:round;stroke-miterlimit:10"
   transform="translate(-68,-68)" />
<g
   id="g9"
   transform="translate(-68,-68)">
	<path
   d="m 399.018,313 c 2.109,0.212 4.339,0.367 6.493,0.549 2.171,0.195 4.342,0.346 6.514,0.504 l 13.042,1.024 c 4.353,0.325 8.701,0.808 13.064,1.181 4.362,0.396 8.728,0.861 13.09,1.415 4.357,0.59 8.732,1.101 13.087,1.753 4.355,0.644 8.694,1.381 12.989,2.183 8.608,1.548 17.006,3.247 25.2,4.518 4.099,0.666 8.171,1.18 12.241,1.586 4.067,0.413 8.135,0.727 12.224,0.867 8.169,0.318 16.404,0.288 24.679,-0.424 l 3.104,-0.259 1.552,-0.167 c 0.261,-0.064 1.113,-0.136 1.378,-0.214 l 1.191,-0.242 1.244,-0.274 c 0.822,-0.21 1.627,-0.454 2.417,-0.709 1.584,-0.492 3.092,-1.125 4.519,-1.846 1.435,-0.687 2.762,-1.55 4.012,-2.434 2.47,-1.845 4.602,-3.942 6.188,-6.473 0.406,-0.617 0.788,-1.244 1.153,-1.878 0.365,-0.635 0.659,-1.343 0.964,-2.026 0.632,-1.387 1.048,-2.788 1.668,-4.605 3.164,-9.27 13.243,-14.219 22.513,-11.055 9.27,3.164 14.219,13.243 11.055,22.513 -0.81,2.374 -2.073,4.464 -3.661,6.208 l -5.864,6.376 c -1.56,1.697 -3.333,3.493 -5.193,5.161 -1.866,1.679 -3.848,3.271 -5.926,4.747 -4.144,2.981 -8.759,5.35 -13.535,7.208 -4.789,1.832 -9.771,3.149 -14.781,3.806 -2.53,0.342 -4.948,0.546 -7.562,0.638 l -1.786,0.046 -1.644,0.02 -3.289,0.021 c -4.391,0.01 -8.798,-0.049 -13.222,-0.196 -4.423,-0.163 -8.859,-0.448 -13.304,-0.824 -8.883,-0.751 -17.817,-2.004 -26.487,-3.602 -8.684,-1.593 -17.01,-3.394 -25.148,-4.905 -8.141,-1.546 -16.208,-2.771 -24.389,-3.658 -16.351,-1.73 -32.999,-2.457 -49.823,-2.533 l -1.225,-0.005 c -6.643,-0.03 -12.003,-5.439 -11.974,-12.082 0.03,-6.643 5.439,-12.003 12.082,-11.973 0.38,10e-4 0.777,0.023 1.15,0.06 z"
   id="path11"
   inkscape:connector-curvature="0" />
</g>
<g
   id="g13"
   transform="translate(-68,-68)">
	<path
   d="m 399.018,337 c -2.16,-0.211 -4.199,-0.347 -6.312,-0.489 -2.099,-0.157 -4.195,-0.243 -6.292,-0.318 l -6.285,-0.2 c -2.094,-0.054 -4.184,-0.023 -6.273,-0.019 -4.176,0.051 -8.352,0.059 -12.503,0.315 -4.152,0.238 -8.291,0.54 -12.415,0.925 -4.129,0.345 -8.221,0.942 -12.307,1.569 -4.086,0.636 -8.161,1.359 -12.253,2.154 -8.169,1.629 -16.432,3.692 -25.016,5.595 -4.29,0.923 -8.635,1.845 -13.017,2.648 -4.383,0.802 -8.797,1.482 -13.21,2.126 -8.835,1.251 -17.673,2.015 -26.472,2.926 l -3.3,0.309 -3.473,0.354 -2.008,0.138 c -0.648,0.036 -1.298,0.071 -1.952,0.09 -1.307,0.067 -2.627,0.104 -3.957,0.103 -2.655,-0.014 -5.356,-0.123 -8.089,-0.366 -2.724,-0.273 -5.499,-0.62 -8.269,-1.171 -5.57,-1.026 -11.135,-2.761 -16.684,-4.92 -2.751,-1.117 -5.455,-2.404 -8.158,-3.728 -2.649,-1.345 -5.351,-2.867 -7.743,-4.073 -8.533,-4.301 -11.963,-14.706 -7.662,-23.238 4.301,-8.532 14.705,-11.963 23.238,-7.662 1.416,0.714 2.691,1.596 3.813,2.609 l 4.652,4.25 c 1.453,1.326 2.797,2.454 4.218,3.518 1.411,1.057 2.859,2.017 4.349,2.885 2.991,1.708 6.073,3.172 9.336,4.185 3.25,1.047 6.643,1.646 10.107,2.01 1.707,0.174 3.554,0.259 5.208,0.258 l 2.973,-0.038 3.113,-0.07 c 4.146,-0.11 8.275,-0.286 12.379,-0.542 4.105,-0.243 8.188,-0.534 12.246,-0.941 8.124,-0.8 16.104,-2.024 24.206,-3.627 8.095,-1.58 16.429,-3.542 25.068,-5.208 8.63,-1.663 17.454,-3.028 26.248,-4.002 17.604,-2.01 35.142,-2.408 52.459,-2.356 l 1.239,0.004 c 6.642,0.02 12.01,5.42 11.991,12.062 -0.021,6.642 -5.421,12.01 -12.063,11.99 -0.374,10e-4 -0.764,-0.02 -1.13,-0.055 z"
   id="path15"
   inkscape:connector-curvature="0" />
</g>
<circle
   stroke-miterlimit="10"
   cx="400"
   cy="166.5"
   r="24"
   id="circle17"
   sodipodi:cx="400"
   sodipodi:cy="166.5"
   sodipodi:rx="24"
   sodipodi:ry="24"
   style="stroke:#000000;stroke-width:4;stroke-linecap:round;stroke-linejoin:round;stroke-miterlimit:10"
   transform="translate(-68,-68)" />
<line
   stroke-miterlimit="10"
   x1="488"
   y1="273"
   x2="488"
   y2="445"
   id="line19"
   style="fill:none;stroke:#000000;stroke-width:10;stroke-linecap:round;stroke-linejoin:round;stroke-miterlimit:10" />
<path
   stroke-miterlimit="10"
   d="m 488,504.727 c 44.183,0 80,-26.74 80,-59.727 H 408 c 0,32.986 35.817,59.727 80,59.727 z"
   id="path21"
   inkscape:connector-curvature="0"
   style="stroke:#000000;stroke-width:4;stroke-linecap:round;stroke-linejoin:round;stroke-miterlimit:10" />
<line
   stroke-miterlimit="10"
   x1="476"
   y1="269"
   x2="429"
   y2="449"
   id="line23"
   style="fill:none;stroke:#000000;stroke-width:10;stroke-linecap:round;stroke-linejoin:round;stroke-miterlimit:10" />
<line
   stroke-miterlimit="10"
   x1="547"
   y1="449"
   x2="500"
   y2="269"
   id="line25"
   style="fill:none;stroke:#000000;stroke-width:10;stroke-linecap:round;stroke-linejoin:round;stroke-miterlimit:10" />
<line
   stroke-miterlimit="10"
   x1="173.73399"
   y1="273"
   x2="173.73399"
   y2="445"
   id="line27"
   style="fill:none;stroke:#000000;stroke-width:10;stroke-linecap:round;stroke-linejoin:round;stroke-miterlimit:10" />
<path
   stroke-miterlimit="10"
   d="m 173.734,504.727 c 44.183,0 80,-26.74 80,-59.727 h -160 c 0,32.986 35.818,59.727 80,59.727 z"
   id="path29"
   inkscape:connector-curvature="0"
   style="stroke:#000000;stroke-width:4;stroke-linecap:round;stroke-linejoin:round;stroke-miterlimit:10" />
<line
   stroke-miterlimit="10"
   x1="161.73399"
   y1="269"
   x2="114.73399"
   y2="449"
   id="line31"
   style="fill:none;stroke:#000000;stroke-width:10;stroke-linecap:round;stroke-linejoin:round;stroke-miterlimit:10" />
<line
   stroke-miterlimit="10"
   x1="232.73401"
   y1="449"
   x2="185.73399"
   y2="269"
   id="line33"
   style="fill:none;stroke:#000000;stroke-width:10;stroke-linecap:round;stroke-linejoin:round;stroke-miterlimit:10" />
</svg>